# File created by Blade
# Date/Time:  Tue Jan 27 17:09:01 2015
#---------------------------------------------------------
:version 1.10
:name HOM
:units
  mass 1.0
  length 1.000000
  angle deg
:documentation
     Acclaim Skeleton File
:root
   axis xyz
   order TX TY TZ RX RY RZ
   position 0.000000 0.000000 0.000000
   orientation 0 0 0
:bonedata
   begin
      id 1
      name Spine_dum
      direction 0.000000 1.000000 0.000000
      length 7.539951
      axis 0.0 0.0 0.0 xyz
   end
   begin
      id 2
      name LeftUpLeg_dum
      direction 1.000000 0.000000 0.000000
      length 3.345476
      axis 0.0 0.0 0.0 xyz
   end
   begin
      id 3
      name RightUpLeg_dum
      direction -1.000000 0.000000 0.000000
      length 3.345476
      axis 0.0 0.0 0.0 xyz
   end
   begin
      id 4
      name Spine
      direction 0.000000 1.000000 0.000000
      length 0.000000
      axis 0.0 0.0 0.0 xyz
      dof rx ry rz
   end
   begin
      id 5
      name Spine_dum1
      direction 0.000000 1.000000 0.000000
      length 15.093809
      axis 0.0 0.0 0.0 xyz
   end
   begin
      id 6
      name Spine_dum2
      direction 0.000000 1.000000 0.000000
      length 9.738928
      axis 0.0 0.0 0.0 xyz
   end
   begin
      id 7
      name Spine_dum3
      direction 0.000000 1.000000 0.000000
      length 9.738928
      axis 0.0 0.0 0.0 xyz
   end
   begin
      id 8
      name Head
      direction 0.000000 1.000000 0.000000
      length 4.527550
      axis 0.0 0.0 0.0 xyz
      dof rx ry rz
   end
   begin
      id 9
      name LeftShoulder
      direction 1.000000 0.000000 0.000000
      length 7.084015
      axis 0.0 0.0 -90.0 xyz
      dof rx ry rz
   end
   begin
      id 10
      name LeftArm
      direction 1.000000 0.000000 0.000000
      length 10.259319
      axis 0.0 0.0 -90.0 xyz
      dof rx ry rz
   end
   begin
      id 11
      name LeftForeArm
      direction 1.000000 0.000000 0.000000
      length 9.896984
      axis 0.0 0.0 -90.0 xyz
      dof ry rz rx
   end
   begin
      id 12
      name LeftHand
      direction 0.000000 0.000000 0.000000
      length 0.000000
      axis 0.0 0.0 -90.0 xyz
      dof rx ry rz
   end
   begin
      id 13
      name LeftHand_dum1
      direction 0.000000 0.000000 0.000000
      length 0.000000
      axis 0.0 0.0 -90.0 xyz
   end
   begin
      id 14
      name LeftHand_dum2
      direction 1.000000 0.000000 0.000000
      length 3.937000
      axis 0.0 0.0 -90.0 xyz
   end
   begin
      id 15
      name LeftHandThumb1
      direction 0.000000 0.000000 1.000000
      length 3.937000
      axis 0.0 0.0 -90.0 xyz
      dof rx rz ry
   end
   begin
      id 16
      name RightShoulder
      direction -1.000000 0.000000 0.000000
      length 7.084015
      axis 0.0 0.0 90.0 xyz
      dof rx ry rz
   end
   begin
      id 17
      name RightArm
      direction -1.000000 0.000000 0.000000
      length 10.259319
      axis 0.0 0.0 90.0 xyz
      dof rx ry rz
   end
   begin
      id 18
      name RightForeArm
      direction -1.000000 0.000000 0.000000
      length 9.896984
      axis 0.0 0.0 90.0 xyz
      dof ry rz rx
   end
   begin
      id 19
      name RightHand
      direction 0.000000 0.000000 0.000000
      length 0.000000
      axis 0.0 0.0 90.0 xyz
      dof rx ry rz
   end
   begin
      id 20
      name RightHand_dum1
      direction 0.000000 0.000000 0.000000
      length 0.000000
      axis 0.0 0.0 90.0 xyz
   end
   begin
      id 21
      name RightHand_dum2
      direction -1.000000 0.000000 0.000000
      length 3.937000
      axis 0.0 0.0 90.0 xyz
   end
   begin
      id 22
      name RightHandThumb1
      direction 0.000000 0.000000 1.000000
      length 3.937000
      axis 0.0 0.0 90.0 xyz
      dof rx rz ry
   end
   begin
      id 23
      name LeftUpLeg
      direction 0.000000 -1.000000 0.000000
      length 19.114733
      axis 0.0 0.0 0.0 xyz
      dof rx ry rz
   end
   begin
      id 24
      name LeftLeg
      direction 0.000000 -1.000000 0.000000
      length 16.045604
      axis 0.0 0.0 0.0 xyz
      dof rx ry rz
   end
   begin
      id 25
      name LeftFoot
      direction 0.000000 -0.258819 0.965926
      length 5.543155
      axis 15.0 0.0 0.0 xyz
      dof rx ry rz
   end
   begin
      id 26
      name LeftToeBase
      direction 0.000000 0.000000 1.000000
      length 2.952750
      axis 0.0 0.0 0.0 xyz
      dof rx ry rz
   end
   begin
      id 27
      name RightUpLeg
      direction 0.000000 -1.000000 0.000000
      length 19.114733
      axis 0.0 0.0 0.0 xyz
      dof rx ry rz
   end
   begin
      id 28
      name RightLeg
      direction 0.000000 -1.000000 0.000000
      length 16.045604
      axis 0.0 0.0 0.0 xyz
      dof rx ry rz
   end
   begin
      id 29
      name RightFoot
      direction 0.000000 -0.258819 0.965926
      length 5.543155
      axis 15.0 0.0 0.0 xyz
      dof rx ry rz
   end
   begin
      id 30
      name RightToeBase
      direction 0.000000 0.000000 1.000000
      length 2.952750
      axis 0.0 0.0 0.0 xyz
      dof rx ry rz
   end
:hierarchy
   begin
      root Spine_dum LeftUpLeg_dum RightUpLeg_dum
      Spine_dum Spine
      LeftUpLeg_dum LeftUpLeg
      RightUpLeg_dum RightUpLeg
      Spine Spine_dum1 Spine_dum2 Spine_dum3
      Spine_dum1 Head
      Spine_dum2 LeftShoulder
      Spine_dum3 RightShoulder
      LeftShoulder LeftArm
      LeftArm LeftForeArm
      LeftForeArm LeftHand
      LeftHand LeftHand_dum1 LeftHand_dum2
      LeftHand_dum1 LeftHandThumb1
      RightShoulder RightArm
      RightArm RightForeArm
      RightForeArm RightHand
      RightHand RightHand_dum1 RightHand_dum2
      RightHand_dum1 RightHandThumb1
      LeftUpLeg LeftLeg
      LeftLeg LeftFoot
      LeftFoot LeftToeBase
      RightUpLeg RightLeg
      RightLeg RightFoot
      RightFoot RightToeBase
   end

# File created by Blade
# Date/Time:  Tue Jan 27 17:08:52 2015
# Frame Rate: 120.000 fps
#------------------------------------------------------
:FULLY-SPECIFIED
:DEGREES
1890
root 0.537663 36.763960 -0.274209 -2.450457 -14.355436 -16.900206
Spine 18.895237 4.846376 19.630032
Head -5.001774 -10.391820 -1.134581
LeftShoulder -5.926149 -6.978148 1.853551
LeftArm -15.128291 -28.138593 -44.735248
LeftForeArm 11.683349 -0.000000 117.709950
LeftHand -19.164082 0.000000 32.639182
LeftHandThumb1 -26.253704 0.000000 33.147579
RightShoulder -2.434282 -23.334548 -3.993761
RightArm 3.031630 8.685135 64.387607
RightForeArm 239.593611 -0.000000 71.847918
RightHand -2.748641 -0.000000 -15.219356
RightHandThumb1 -24.326973 -0.000000 -32.862282
LeftUpLeg -7.381141 13.412157 10.658432
LeftLeg 31.179121 -0.000000 -0.000000
LeftFoot -27.387528 14.814243 -10.370455
LeftToeBase 12.357249 -0.000000 -0.000000
RightUpLeg -94.589200 -26.225021 12.249216
RightLeg 121.203576 -0.000000 -0.000000
RightFoot -4.065989 -7.337401 9.819216
RightToeBase 7.971030 -0.000000 -0.000000
1891
root 0.532255 36.761530 -0.285086 -2.477421 -14.402871 -17.016936
Spine 19.040145 4.802063 19.733785
Head -5.029223 -10.411265 -1.041510
LeftShoulder -5.956742 -6.981643 1.911253
LeftArm -15.182255 -28.226079 -44.788258
LeftForeArm 11.708794 -0.000000 117.780053
LeftHand -19.178503 -0.000000 32.662132
LeftHandThumb1 -26.253704 0.000000 33.147579
RightShoulder -2.510427 -23.316423 -3.996821
RightArm 2.856655 8.807865 64.304166
RightForeArm 239.337437 0.000000 72.390620
RightHand -2.766338 -0.000000 -15.243178
RightHandThumb1 -24.326973 -0.000000 -32.862282
LeftUpLeg -7.397241 13.455648 10.804338
LeftLeg 31.330503 -0.000000 -0.000000
LeftFoot -27.438029 14.777549 -10.432822
LeftToeBase 12.353422 -0.000000 -0.000000
RightUpLeg -94.777641 -26.205314 12.145726
RightLeg 121.186050 -0.000000 -0.000000
RightFoot -4.093522 -7.413776 9.672540
RightToeBase 7.783281 -0.000000 -0.000000
1892
root 0.527523 36.759194 -0.295889 -2.501139 -14.442798 -17.141087
Spine 19.179485 4.733758 19.855082
Head -5.055422 -10.392055 -0.989725
LeftShoulder -6.000045 -6.974188 1.950457
LeftArm -15.234013 -28.294258 -44.827711
LeftForeArm 11.595316 0.000000 117.849901
LeftHand -19.131076 -0.000000 32.814677
LeftHandThumb1 -26.253704 0.000000 33.147579
RightShoulder -2.580872 -23.333103 -4.010110
RightArm 2.698839 8.904294 64.206564
RightForeArm 239.197067 0.000000 72.950424
RightHand -2.720929 0.000000 -15.264927
RightHandThumb1 -24.326973 -0.000000 -32.862282
LeftUpLeg -7.415601 13.469768 10.951133
LeftLeg 31.475549 -0.000000 -0.000000
LeftFoot -27.493692 14.775116 -10.496767
LeftToeBase 12.362664 -0.000000 -0.000000
RightUpLeg -94.960107 -26.200816 12.063503
RightLeg 121.155964 -0.000000 -0.000000
RightFoot -4.212135 -7.476797 9.633062
RightToeBase 7.848862 -0.000000 -0.000000
1893
root 0.523350 36.756501 -0.306688 -2.519977 -14.472651 -17.253930
Spine 19.290733 4.649936 19.957848
Head -5.021662 -10.348174 -0.947534
LeftShoulder -6.021473 -6.977026 1.990766
LeftArm -15.350703 -28.392135 -44.831733
LeftForeArm 11.540703 -0.000000 117.933672
LeftHand -19.124596 -0.000000 32.858117
LeftHandThumb1 -26.253704 0.000000 33.147579
RightShoulder -2.621996 -23.353226 -4.022290
RightArm 2.547557 8.997150 64.114308
RightForeArm 239.071300 -0.000000 73.474001
RightHand -2.837173 0.000000 -15.185936
RightHandThumb1 -24.326973 -0.000000 -32.862282
LeftUpLeg -7.443128 13.457102 11.079932
LeftLeg 31.616849 -0.000000 -0.000000
LeftFoot -27.538469 14.787022 -10.557563
LeftToeBase 12.331657 -0.000000 -0.000000
RightUpLeg -95.145989 -26.219603 12.015281
RightLeg 121.114126 -0.000000 -0.000000
RightFoot -4.371344 -7.545015 9.494092
RightToeBase 7.840151 -0.000000 -0.000000
1894
root 0.522090 36.752001 -0.315444 -2.542289 -14.498170 -17.356358
Spine 19.410120 4.568771 20.063086
Head -5.046238 -10.283121 -0.911728
LeftShoulder -6.036924 -6.947867 2.028265
LeftArm -15.453938 -28.519834 -44.857646
LeftForeArm 11.499112 0.000000 118.033009
LeftHand -19.105928 -0.000000 32.824704
LeftHandThumb1 -26.253704 0.000000 33.147579
RightShoulder -2.693726 -23.363402 -4.041034
RightArm 2.392623 9.071558 64.011953
RightForeArm 239.006725 -0.000000 73.994275
RightHand -2.762366 -0.000000 -15.294835
RightHandThumb1 -24.326973 -0.000000 -32.862282
LeftUpLeg -7.470229 13.417772 11.187054
LeftLeg 31.758738 -0.000000 -0.000000
LeftFoot -27.610873 14.832510 -10.625135
LeftToeBase 12.372793 -0.000000 -0.000000
RightUpLeg -95.316166 -26.241735 11.933415
RightLeg 121.080946 -0.000000 -0.000000
RightFoot -4.546222 -7.575178 9.567751
RightToeBase 7.865327 -0.000000 -0.000000
